<svg width="15" height="22" viewBox="0 0 15 22" fill="none" xmlns="http://www.w3.org/2000/svg">
<path fill-rule="evenodd" clip-rule="evenodd" d="M7.5 2.25C5.46 2.25 3.79 3.903 3.75 5.936V6V6.625H0.63C0.46 6.625 0.3 6.691 0.18 6.808C0.07 6.925 0 7.084 0 7.25V11V14.125C0 15.373 0 16.318 0.08 17.082C0.17 17.845 0.35 18.479 0.81 18.938C1.27 19.398 1.91 19.581 2.67 19.667C3.40501 19.7502 4.31774 19.7501 5.50768 19.75H5.50772L5.63 19.75H9.38L9.4627 19.75H9.46278C10.6624 19.75 11.587 19.7501 12.33 19.666C13.1 19.58 13.73 19.396 14.19 18.936C14.65 18.476 14.83 17.842 14.92 17.079C15 16.316 15 15.371 15 14.125V11V7.25C15 7.084 14.93 6.925 14.82 6.808C14.7 6.691 14.54 6.625 14.38 6.625H11.25V6V5.929C11.21 3.899 9.54 2.25 7.5 2.25ZM7.5 3.5C8.89 3.5 10 4.613 10 6V6.625H5V6C5 4.613 6.11 3.5 7.5 3.5ZM3.75 7.875H1.25V11V14.125C1.25 15.372 1.25 16.299 1.33 16.941C1.4 17.583 1.53 17.888 1.7 18.054C1.86 18.221 2.17 18.352 2.81 18.424C3.45 18.496 4.38 18.5 5.62 18.5H9.37C10.62 18.5 11.55 18.497 12.19 18.424C12.83 18.352 13.14 18.22 13.3 18.053C13.47 17.886 13.6 17.582 13.67 16.94C13.75 16.298 13.75 15.371 13.75 14.125V11V7.875H11.25V9.125C11.25 9.208 11.24 9.29 11.2 9.367C11.17 9.444 11.13 9.514 11.07 9.573C11.01 9.632 10.94 9.678 10.87 9.71C10.79 9.742 10.71 9.759 10.62 9.759C10.54 9.759 10.46 9.742 10.38 9.71C10.31 9.678 10.24 9.632 10.18 9.573C10.12 9.514 10.08 9.444 10.04 9.367C10.01 9.29 10 9.208 10 9.125V7.875H5V9.125C5 9.208 4.99 9.29 4.95 9.367C4.92 9.444 4.88 9.514 4.82 9.573C4.76 9.632 4.69 9.678 4.62 9.71C4.54 9.742 4.46 9.759 4.37 9.759C4.29 9.759 4.21 9.742 4.13 9.71C4.06 9.678 3.99 9.632 3.93 9.573C3.87 9.514 3.83 9.444 3.79 9.367C3.76 9.29 3.75 9.208 3.75 9.125V7.875Z" fill="#0C0D34"/>
</svg>
