<svg width="154" height="24" viewBox="0 0 154 24" fill="none" xmlns="http://www.w3.org/2000/svg">
<path d="M48.8944 12.0243C48.8944 15.1157 46.3455 17.6218 43.2011 17.6218C40.0568 17.6218 37.5078 15.1157 37.5078 12.0243C37.5078 8.93286 40.0568 6.42676 43.2011 6.42676C46.3455 6.42676 48.8944 8.93286 48.8944 12.0243ZM40.0418 12.0243C40.0418 13.7398 41.4563 15.1305 43.2011 15.1305C44.946 15.1305 46.3605 13.7398 46.3605 12.0243C46.3605 10.3088 44.946 8.91809 43.2011 8.91809C41.4563 8.91809 40.0418 10.3088 40.0418 12.0243Z" fill="#252426"/>
<path d="M57.257 17.2127V12.994H52.9792V17.3749H50.6758V6.50366H52.9792V10.7224H57.257V6.50366H59.5604V17.2127H57.257Z" fill="#252426"/>
<path d="M64.4958 6.50366V6.82818L63.8376 13.643H62.5214L61.8633 6.82818V6.50366H64.4958ZM62.0278 17.2127V14.7788H64.4958V17.2127H62.0278Z" fill="#252426"/>
<path d="M79.4687 17.2127V10.2356L76.5071 14.7788L73.5456 10.2356V17.2127H71.2422V6.50366H73.7101L76.5071 11.0469L79.3042 6.50366H81.7721V17.2127H79.4687Z" fill="#252426"/>
<path d="M89.5021 12.994V17.2127H87.1987V12.994L83.25 6.50366H85.8825L88.3504 10.8846L90.8184 6.50366H93.4509L89.5021 12.994Z" fill="#252426"/>
<path d="M107.655 15.6605C107.49 15.9851 106.492 15.9801 106.163 16.3047C105.834 16.6292 106.498 16.6339 105.828 16.9632C105.334 17.1255 104.805 17.2127 104.146 17.2127H99.2105V6.50366H103.982C104.969 6.50366 105.956 6.82818 106.45 7.31495C107.108 7.80172 107.437 8.45075 107.437 9.26204C107.437 9.58655 107.437 9.91107 107.272 10.0733C107.108 10.2356 107.108 10.5601 106.943 10.7224C106.779 10.8846 106.614 11.0469 106.45 11.2091C106.285 11.3714 106.121 11.5336 105.956 11.5336C106.614 11.6959 107.108 12.0204 107.437 12.5072C107.766 12.994 107.931 13.3414 107.931 14.1298C107.931 15.2326 107.819 15.336 107.655 15.6605ZM105.298 9.74881C105.298 9.4243 105.134 9.09978 104.969 8.93752C104.64 8.61301 104.311 8.61301 103.817 8.61301H101.514V10.8846H103.653C104.146 10.8846 104.64 10.7224 104.805 10.5601C105.134 10.3978 105.298 10.0733 105.298 9.74881ZM105.956 13.9675C105.956 13.643 105.792 13.3185 105.627 13.1562C105.298 12.994 104.969 12.8317 104.311 12.8317H101.678V15.1033H104.475C104.969 15.1033 105.298 14.9411 105.627 14.7788C105.792 14.6165 105.956 14.4543 105.956 13.9675Z" fill="#252426"/>
<path d="M116.486 17.2127L114.183 13.8052H112.373V17.2127H110.069V6.50366H114.841C116.157 6.50366 116.98 6.82818 117.802 7.47721C118.461 8.12624 118.79 8.93752 118.79 10.0733C118.79 10.8846 118.625 11.6959 118.131 12.1827C117.638 12.6694 117.144 13.1562 116.486 13.3185L118.954 17.2127H116.486ZM116.486 10.2356C116.486 9.74881 116.322 9.4243 115.993 9.09978C115.664 8.77527 115.17 8.61301 114.676 8.61301H112.373V11.6959H114.676C115.17 11.6959 115.664 11.5336 115.993 11.2091C116.322 11.0469 116.486 10.7224 116.486 10.2356Z" fill="#252426"/>
<path d="M128.661 17.2128L127.674 14.7789H123.232L122.245 17.2128H119.941L124.383 6.34155H126.522L130.965 17.2128H128.661ZM125.371 9.26219L124.054 12.6696H126.851L125.371 9.26219Z" fill="#252426"/>
<path d="M139.849 17.2127L134.913 10.3978V17.2127H132.61V6.50366H134.749L139.685 13.1562V6.50366H141.988V17.2127H139.849Z" fill="#252426"/>
<path d="M153.507 13.9675C153.178 14.6165 152.849 15.2656 152.355 15.5901C151.861 16.0769 151.368 16.5636 150.71 16.7259C150.052 17.0504 149.229 17.2127 148.406 17.2127H144.293V6.50366H148.406C149.229 6.50366 149.887 6.66592 150.71 6.99043C151.368 7.31495 152.026 7.63946 152.519 8.12624C153.013 8.61301 153.342 9.09978 153.671 9.74881C154 10.3978 154 11.0469 154 11.8582C154 12.6694 153.836 13.3185 153.507 13.9675ZM151.532 11.8582C151.532 11.3714 151.532 10.8846 151.368 10.5601C151.203 10.2356 151.039 9.74881 150.71 9.58655C150.381 9.4243 150.052 9.09978 149.722 8.93752C149.393 8.77527 148.9 8.61301 148.406 8.61301H146.596V15.1033H148.406C148.9 15.1033 149.229 15.1033 149.722 14.9411C150.052 14.7788 150.381 14.6165 150.71 14.292C151.039 13.9675 151.203 13.643 151.368 13.3185C151.532 12.8317 151.532 12.3449 151.532 11.8582Z" fill="#252426"/>
<path d="M105.829 11.6952C107.704 11.4318 107.615 9.28055 107.168 8.07324C106.945 8.183 106.164 8.1391 106.164 8.40251V9.39031C106.164 9.65372 105.94 10.1586 105.829 10.3781C105.047 10.9269 103.953 11.9586 105.829 11.6952Z" fill="#232428"/>
<path d="M107.839 14.9219C107.839 16.5024 105.606 17.117 104.49 17.2268L104.26 16.8875C104.225 16.8939 104.19 16.8975 104.155 16.8975C103.887 16.8975 103.82 16.4585 103.82 16.239L104.26 16.8875C104.56 16.8324 104.86 16.5682 105.16 16.5682C105.495 16.5682 105.495 15.5804 106.5 14.5926C107.303 13.8024 107.504 13.1658 107.504 12.9463C107.616 12.9463 107.839 13.3414 107.839 14.9219Z" fill="#252426"/>
<path d="M15.9456 9.26154C15.2773 9.26154 14.609 9.10254 14.1078 8.62553L10.2651 5.7635C9.93091 5.4455 9.42969 5.7635 9.42969 6.24051V11.6466V15.9396V16.4166C9.42969 16.5756 9.42969 16.5756 9.59676 16.5756L15.7785 19.7556C15.9456 19.9146 16.1126 19.9146 16.4468 19.7556L22.4614 16.5756L22.6285 16.4166V15.7806V11.4876V6.24051C22.6285 5.7635 21.9602 5.4455 21.6261 5.7635L17.9505 8.62553C17.2822 9.10254 16.6139 9.26154 15.9456 9.26154ZM20.2895 8.78454C20.4566 8.62553 20.7907 8.78453 20.7907 9.10254V11.6466V15.4626C20.7907 15.6216 20.7907 15.6216 20.6236 15.6216L16.2797 18.0066C16.1126 18.1656 15.9456 18.1656 15.6114 18.0066L11.1004 15.6216L10.9334 15.4626V11.4876V9.10254C10.9334 8.78453 11.2675 8.62553 11.4346 8.78454L12.9382 9.89755C14.609 11.1696 16.7809 11.1696 18.4517 9.89755L20.2895 8.78454Z" fill="#FC4B15"/>
<path d="M30.2179 16.1699L32.0543 9.04342C32.0543 8.87768 32.0543 8.71195 31.8873 8.54622L26.545 0.922493C26.378 0.591026 26.0441 0.425293 25.5433 0.425293L17.1958 1.58543C16.361 1.58543 15.5263 1.58543 14.8585 1.58543L6.34408 0.425293C6.01018 0.425293 5.67628 0.591026 5.50933 0.922493L0.166949 8.54622C0 8.71195 0 8.87768 0 9.04342L1.83644 16.1699C1.83644 16.3357 2.00339 16.3357 2.00339 16.5014C2.17034 16.5014 2.17034 16.5014 2.33729 16.5014L5.34238 15.3413H5.50933H5.67628C5.84323 15.3413 5.84323 15.507 5.84323 15.6727V18.1587C5.84323 18.3245 5.84323 18.3245 6.01018 18.4902L15.6932 23.7937C15.8602 23.9594 16.0271 23.9594 16.1941 23.7937L25.8772 18.4902C26.0441 18.4902 26.0441 18.3245 26.0441 18.1587V15.8385C26.0441 15.6727 26.0441 15.6727 26.2111 15.507C26.545 15.3413 26.545 15.3413 26.7119 15.3413L29.5501 16.3357C29.717 16.3357 29.717 16.3357 29.884 16.3357C30.0509 16.3357 30.2179 16.1699 30.2179 16.1699ZM28.8823 14.0154C28.8823 14.0154 28.8823 14.1811 28.7153 14.1811C28.5484 14.1811 28.5484 14.1811 28.5484 14.1811L26.378 13.5182C26.2111 13.5182 26.0441 13.3525 26.0441 13.1867V10.0378C26.0441 9.37488 25.3763 8.71195 24.7085 8.71195H24.5416C24.3746 8.71195 24.2077 8.87768 24.2077 9.04342V17.3301C24.2077 17.4958 24.2077 17.6615 24.0407 17.6615L16.361 21.9706C16.1941 21.9706 16.1941 22.1363 16.0271 22.1363C15.8602 22.1363 15.8602 22.1363 15.6932 21.9706L7.67968 17.6615C7.51273 17.6615 7.51273 17.4958 7.51273 17.3301V9.04342C7.51273 8.87768 7.34578 8.71195 7.17883 8.71195C6.34408 8.71195 5.84323 9.37488 5.84323 10.0378V13.1867C5.84323 13.3525 5.67628 13.5182 5.50933 13.5182L3.50594 14.3469H3.33899L3.17204 14.1811L1.83644 9.37488C1.83644 9.20915 1.83644 9.04342 2.00339 8.87769L6.34408 2.74556C6.51103 2.41409 6.84493 2.08262 7.34578 2.24836L14.8585 3.40849C15.6932 3.40849 16.528 3.40849 17.1958 3.40849L24.7085 2.24836C25.0424 2.24836 25.5433 2.41409 25.7102 2.74556L30.0509 8.87769C30.2179 9.04342 30.2179 9.20915 30.2179 9.37488L28.8823 14.0154Z" fill="#FC4B15"/>
</svg>
