<svg width="15" height="14" viewBox="0 0 15 14" fill="none" xmlns="http://www.w3.org/2000/svg">
<path fill-rule="evenodd" clip-rule="evenodd" d="M4.73999 2.4537H0.626303C0.294002 2.4537 0.0246188 2.72308 0.0246188 3.05538C0.0246188 3.38768 0.294002 3.65706 0.626303 3.65706H4.73999C5.02652 5.08404 6.2799 6.11076 7.73536 6.11076C9.19081 6.11076 10.4442 5.08404 10.7307 3.65706H13.4389C13.7712 3.65706 14.0406 3.38768 14.0406 3.05538C14.0406 2.72308 13.7712 2.4537 13.4389 2.4537H10.7316C10.445 1.02672 9.19165 0 7.7362 0C6.28074 0 5.02736 1.02672 4.74083 2.4537H4.73999ZM9.58462 3.05496C9.58462 3.80428 9.13324 4.47981 8.44096 4.76657C7.74868 5.05332 6.95183 4.89482 6.42198 4.36497C5.89213 3.83512 5.73363 3.03827 6.02038 2.34599C6.30713 1.65371 6.98267 1.20233 7.73199 1.20233C8.22363 1.20188 8.69528 1.39687 9.04309 1.74435C9.39089 2.09184 9.5863 2.56332 9.5863 3.05496H9.58462ZM1.71936 9.82127H0.624619C0.404289 9.81303 0.197074 9.92587 0.0844604 10.1154C-0.0281535 10.305 -0.0281535 10.5409 0.0844604 10.7305C0.197074 10.92 0.404289 11.0329 0.624619 11.0246H1.71936C2.00589 12.4516 3.25927 13.4783 4.71472 13.4783C6.17018 13.4783 7.42356 12.4516 7.71009 11.0246H13.4364C13.6567 11.0329 13.864 10.92 13.9766 10.7305C14.0892 10.5409 14.0892 10.305 13.9766 10.1154C13.864 9.92587 13.6567 9.81303 13.4364 9.82127H7.70504C7.41865 8.3956 6.16636 7.36985 4.7122 7.36985C3.25804 7.36985 2.00575 8.3956 1.71936 9.82127ZM6.56399 10.4234C6.56399 11.4466 5.73454 12.276 4.71136 12.276C3.68818 12.276 2.85872 11.4466 2.85872 10.4234C2.85872 9.4002 3.68818 8.57075 4.71136 8.57075C5.73421 8.57075 6.56352 9.39969 6.56399 10.4225V10.4234Z" fill="#252426"/>
</svg>
