<svg width="15" height="14" viewBox="0 0 15 14" fill="none" xmlns="http://www.w3.org/2000/svg">
<path fill-rule="evenodd" clip-rule="evenodd" d="M0.610359 0.00026605C0.362922 0.000329131 0.140194 0.150307 0.0470853 0.379558C-0.0460238 0.608809 0.00905313 0.871616 0.186374 1.04419L6.14116 6.99898L0.186374 12.9538C0.0278734 13.1064 -0.0358457 13.3327 0.0197521 13.5455C0.07535 13.7584 0.241593 13.9246 0.454468 13.9802C0.667343 14.0358 0.893647 13.9721 1.04624 13.8136L7.00102 7.85884L12.9558 13.8136C13.1084 13.9721 13.3347 14.0358 13.5476 13.9802C13.7605 13.9246 13.9267 13.7584 13.9823 13.5455C14.0379 13.3327 13.9742 13.1064 13.8157 12.9538L7.86089 6.99898L13.8157 1.04419C13.9955 0.86938 14.0496 0.602089 13.9518 0.371116C13.8541 0.140144 13.6246 -0.00712741 13.3739 0.00026605C13.2159 0.00497246 13.066 0.0709947 12.9558 0.184346L7.00105 6.13913L1.04626 0.184346C0.931781 0.0666656 0.774581 0.000274392 0.610402 0.00026605H0.610359Z" fill="white"/>
</svg>
