<svg width="16" height="10" viewBox="0 0 16 10" fill="none" xmlns="http://www.w3.org/2000/svg">
<path d="M0.292294 5.60004L4.36995 9.77304C4.43835 9.84404 4.51847 9.90104 4.60837 9.94004C4.69729 9.97904 4.79305 9.99904 4.89077 10C4.98751 10.001 5.08424 9.98204 5.17414 9.94404C5.26404 9.90604 5.34514 9.85104 5.41452 9.78004C5.48292 9.71004 5.53666 9.62704 5.5738 9.53504C5.61093 9.44304 5.62949 9.34404 5.62852 9.24504C5.62852 9.14504 5.608 9.04704 5.56989 8.95604C5.53178 8.86404 5.47608 8.78104 5.4067 8.71204L2.51238 5.75004H15.2525C15.3502 5.75204 15.4469 5.73404 15.5378 5.69704C15.6277 5.66004 15.7108 5.60504 15.7801 5.53504C15.8495 5.46504 15.9052 5.38204 15.9423 5.29004C15.9805 5.19804 16 5.10004 16 5.00004C16 4.90004 15.9805 4.80104 15.9423 4.71004C15.9052 4.61804 15.8495 4.53404 15.7801 4.46404C15.7108 4.39504 15.6277 4.34004 15.5378 4.30304C15.4469 4.26604 15.3502 4.24804 15.2525 4.25004H2.51238L5.4067 1.28804C5.47608 1.21804 5.53178 1.13604 5.56989 1.04404C5.608 0.953042 5.62852 0.854042 5.62852 0.755042C5.62949 0.656042 5.61093 0.557042 5.5738 0.465042C5.53666 0.373042 5.48292 0.290042 5.41452 0.219042C5.34514 0.149042 5.26404 0.0930418 5.17414 0.0560418C5.08424 0.0180418 4.98751 -0.000958184 4.89077 4.18159e-05C4.79305 4.18159e-05 4.69729 0.0210418 4.60837 0.0600418C4.51847 0.0990418 4.43835 0.156042 4.36995 0.227042L0.29034 4.40204C0.205328 4.46804 0.13595 4.55204 0.0851381 4.64804C0.0353034 4.74404 0.00696605 4.85104 0.00110314 4.96004C-0.00475977 5.06804 0.012829 5.17704 0.051915 5.27804C0.0919782 5.38004 0.152562 5.47104 0.229757 5.54604C0.2493 5.56504 0.270797 5.58304 0.292294 5.60004Z" fill="#0C0D34"/>
</svg>
