<svg width="16" height="10" viewBox="0 0 16 10" fill="none" xmlns="http://www.w3.org/2000/svg">
<path d="M15.7077 4.40004L11.6301 0.227042C11.5617 0.156042 11.4815 0.0990418 11.3916 0.0600418C11.3027 0.0210418 11.2069 0.00104182 11.1092 4.18159e-05C11.0125 -0.000958184 10.9158 0.0180418 10.8259 0.0560418C10.736 0.0940418 10.6549 0.149042 10.5855 0.220042C10.5171 0.290042 10.4633 0.374042 10.4262 0.466042C10.3891 0.557042 10.3705 0.656042 10.3715 0.755042C10.3725 0.855042 10.392 0.953042 10.4301 1.04404C10.4682 1.13604 10.5239 1.21904 10.5933 1.28804L13.4876 4.25004H0.747521C0.649806 4.24804 0.553068 4.26604 0.462193 4.30304C0.372295 4.34004 0.289237 4.39504 0.219859 4.46504C0.150481 4.53504 0.0947837 4.61804 0.0576519 4.71004C0.019543 4.80204 0 4.90104 0 5.00004C0 5.10004 0.019543 5.19904 0.0576519 5.29104C0.0947837 5.38204 0.150481 5.46604 0.219859 5.53604C0.289237 5.60504 0.372295 5.66004 0.462193 5.69704C0.553068 5.73404 0.649806 5.75204 0.747521 5.75004H13.4876L10.5933 8.71304C10.5239 8.78204 10.4682 8.86504 10.4301 8.95604C10.392 9.04704 10.3725 9.14604 10.3715 9.24504C10.3705 9.34404 10.3891 9.44304 10.4262 9.53504C10.4633 9.62704 10.5171 9.71004 10.5855 9.78104C10.6549 9.85104 10.736 9.90704 10.8259 9.94404C10.9158 9.98204 11.0125 10.001 11.1092 10C11.2069 10 11.3027 9.97904 11.3916 9.94004C11.4815 9.90104 11.5617 9.84404 11.6301 9.77304L15.7097 5.59804C15.7947 5.53204 15.864 5.44804 15.9149 5.35204C15.9647 5.25604 15.993 5.14904 15.9989 5.04104C16.0048 4.93204 15.9872 4.82304 15.9481 4.72204C15.908 4.62004 15.8474 4.52904 15.7702 4.45404C15.7507 4.43504 15.7292 4.41704 15.7077 4.40004Z" fill="#0C0D34"/>
</svg>
