<svg width="33" height="24" viewBox="0 0 33 24" fill="none" xmlns="http://www.w3.org/2000/svg">
<path d="M15.9456 9.26154C15.2773 9.26154 14.609 9.10254 14.1078 8.62553L10.2651 5.7635C9.93091 5.4455 9.42969 5.7635 9.42969 6.24051V11.6466V15.9396V16.4166C9.42969 16.5756 9.42969 16.5756 9.59676 16.5756L15.7785 19.7556C15.9456 19.9146 16.1126 19.9146 16.4468 19.7556L22.4614 16.5756L22.6285 16.4166V15.7806V11.4876V6.24051C22.6285 5.7635 21.9602 5.4455 21.6261 5.7635L17.9505 8.62553C17.2822 9.10254 16.6139 9.26154 15.9456 9.26154ZM20.2895 8.78454C20.4566 8.62553 20.7907 8.78453 20.7907 9.10254V11.6466V15.4626C20.7907 15.6216 20.7907 15.6216 20.6236 15.6216L16.2797 18.0066C16.1126 18.1656 15.9456 18.1656 15.6114 18.0066L11.1004 15.6216L10.9334 15.4626V11.4876V9.10254C10.9334 8.78453 11.2675 8.62553 11.4346 8.78454L12.9382 9.89755C14.609 11.1696 16.7809 11.1696 18.4517 9.89755L20.2895 8.78454Z" fill="#FC4B15"/>
<path d="M30.2179 16.1699L32.0543 9.04342C32.0543 8.87768 32.0543 8.71195 31.8873 8.54622L26.545 0.922493C26.378 0.591026 26.0441 0.425293 25.5433 0.425293L17.1958 1.58543C16.361 1.58543 15.5263 1.58543 14.8585 1.58543L6.34408 0.425293C6.01018 0.425293 5.67628 0.591026 5.50933 0.922493L0.166949 8.54622C0 8.71195 0 8.87768 0 9.04342L1.83644 16.1699C1.83644 16.3357 2.00339 16.3357 2.00339 16.5014C2.17034 16.5014 2.17034 16.5014 2.33729 16.5014L5.34238 15.3413H5.50933H5.67628C5.84323 15.3413 5.84323 15.507 5.84323 15.6727V18.1587C5.84323 18.3245 5.84323 18.3245 6.01018 18.4902L15.6932 23.7937C15.8602 23.9594 16.0271 23.9594 16.1941 23.7937L25.8772 18.4902C26.0441 18.4902 26.0441 18.3245 26.0441 18.1587V15.8385C26.0441 15.6727 26.0441 15.6727 26.2111 15.507C26.545 15.3413 26.545 15.3413 26.7119 15.3413L29.5501 16.3357C29.717 16.3357 29.717 16.3357 29.884 16.3357C30.0509 16.3357 30.2179 16.1699 30.2179 16.1699ZM28.8823 14.0154C28.8823 14.0154 28.8823 14.1811 28.7153 14.1811C28.5484 14.1811 28.5484 14.1811 28.5484 14.1811L26.378 13.5182C26.2111 13.5182 26.0441 13.3525 26.0441 13.1867V10.0378C26.0441 9.37488 25.3763 8.71195 24.7085 8.71195H24.5416C24.3746 8.71195 24.2077 8.87768 24.2077 9.04342V17.3301C24.2077 17.4958 24.2077 17.6615 24.0407 17.6615L16.361 21.9706C16.1941 21.9706 16.1941 22.1363 16.0271 22.1363C15.8602 22.1363 15.8602 22.1363 15.6932 21.9706L7.67968 17.6615C7.51273 17.6615 7.51273 17.4958 7.51273 17.3301V9.04342C7.51273 8.87768 7.34578 8.71195 7.17883 8.71195C6.34408 8.71195 5.84323 9.37488 5.84323 10.0378V13.1867C5.84323 13.3525 5.67628 13.5182 5.50933 13.5182L3.50594 14.3469H3.33899L3.17204 14.1811L1.83644 9.37488C1.83644 9.20915 1.83644 9.04342 2.00339 8.87769L6.34408 2.74556C6.51103 2.41409 6.84493 2.08262 7.34578 2.24836L14.8585 3.40849C15.6932 3.40849 16.528 3.40849 17.1958 3.40849L24.7085 2.24836C25.0424 2.24836 25.5433 2.41409 25.7102 2.74556L30.0509 8.87769C30.2179 9.04342 30.2179 9.20915 30.2179 9.37488L28.8823 14.0154Z" fill="#FC4B15"/>
</svg>
