<svg width="15" height="10" viewBox="0 0 15 10" fill="none" xmlns="http://www.w3.org/2000/svg">
<path d="M12.956 3.22971L8.92109 7.14823C8.07507 7.96864 7.23221 8.78905 6.39095 9.60792C5.85286 10.1307 4.93699 10.1307 4.39573 9.60792C4.23065 9.44599 4.06557 9.28561 3.90367 9.12523C2.73542 7.98869 1.57035 6.85523 0.403695 5.71715C-0.153444 5.1774 -0.115349 4.3277 0.403695 3.78024C0.917977 3.23433 1.8767 3.27289 2.39892 3.78024C2.56558 3.94062 2.73066 4.10101 2.89256 4.26139C3.72748 5.07254 4.56239 5.88832 5.39413 6.69948C6.71635 5.41489 8.03538 4.13493 9.35601 2.85035L11.8861 0.392207C12.4433 -0.149077 13.3179 -0.112066 13.8814 0.392207C14.4417 0.89648 14.402 1.82484 13.8798 2.33219C13.5734 2.62982 13.2623 2.93208 12.956 3.22971Z" fill="white"/>
</svg>
