<svg width="32" height="32" viewBox="0 0 32 32" fill="none" xmlns="http://www.w3.org/2000/svg">
<path d="M3 27H21" stroke="black" stroke-width="2" stroke-linecap="round" stroke-linejoin="round"/>
<path d="M2.11589 17.5462L6.82782 21.9636C7.45561 22.5522 8.25648 22.9226 9.1115 23.0198C9.96653 23.1171 10.8301 22.936 11.5741 22.5035L30.5 11.5L28.1701 8.65236C27.5656 7.9136 26.7169 7.41534 25.7773 7.24757C24.8376 7.07981 23.8689 7.25361 23.0462 7.73757L17.5 11L10 8.50003L7.93763 9.38391C7.78333 9.45003 7.64816 9.55394 7.54459 9.68605C7.44101 9.81815 7.37236 9.97421 7.34496 10.1398C7.31756 10.3054 7.33229 10.4753 7.3878 10.6337C7.44331 10.7921 7.5378 10.934 7.66258 11.0463L11.5 14.5L8 16.5L4.5 15L2.40591 15.8975C2.2532 15.9629 2.1192 16.0654 2.01602 16.1956C1.91285 16.3259 1.84374 16.4798 1.81496 16.6434C1.78617 16.807 1.79861 16.9753 1.85115 17.1329C1.9037 17.2905 1.99468 17.4325 2.11589 17.5462V17.5462Z" stroke="black" stroke-width="2" stroke-linecap="round" stroke-linejoin="round"/>
</svg>
